<svg xmlns="http://www.w3.org/2000/svg" width="191.61" height="53.953" viewBox="0 0 191.61 53.953">
  <g id="Logo-cepsa-02" transform="translate(-15.89 -10.13)">
    <path id="Path_12" data-name="Path 12" d="M24.919,139.257a4.358,4.358,0,0,1-1.635-.3,3.5,3.5,0,0,1-1.267-.86,3.85,3.85,0,0,1-.818-1.4,5.776,5.776,0,0,1-.289-1.9,5.153,5.153,0,0,1,.325-1.9,4.122,4.122,0,0,1,.878-1.4,3.68,3.68,0,0,1,1.292-.86,4.214,4.214,0,0,1,1.574-.3,5.494,5.494,0,0,1,.953.075,6.366,6.366,0,0,1,.739.171,3.352,3.352,0,0,1,.511.2,2.824,2.824,0,0,1,.271.146l-.346.985a2.211,2.211,0,0,0-.321-.161c-.139-.057-.3-.114-.475-.171a4.727,4.727,0,0,0-.578-.143,3.743,3.743,0,0,0-.632-.054,3.071,3.071,0,0,0-1.217.232,2.559,2.559,0,0,0-.925.678,3.071,3.071,0,0,0-.585,1.078,4.629,4.629,0,0,0-.2,1.421,4.932,4.932,0,0,0,.178,1.392,3.148,3.148,0,0,0,.535,1.078,2.414,2.414,0,0,0,.892.7,2.967,2.967,0,0,0,1.249.246,4.609,4.609,0,0,0,1.367-.171,5.948,5.948,0,0,0,.81-.307l.307.985a1.586,1.586,0,0,1-.307.154,4.238,4.238,0,0,1-.553.178,6.562,6.562,0,0,1-.775.146,7.286,7.286,0,0,1-.96.061" transform="translate(-3.228 -77.302)" fill="#e22c1c"/>
    <path id="Path_13" data-name="Path 13" d="M47.525,139.776a4.087,4.087,0,0,1-.221,1.378,3.077,3.077,0,0,1-.621,1.057,2.7,2.7,0,0,1-.953.682,3.163,3.163,0,0,1-2.413,0,2.8,2.8,0,0,1-.953-.682,3.11,3.11,0,0,1-.621-1.057,4.378,4.378,0,0,1,0-2.749,3.109,3.109,0,0,1,.621-1.064,2.749,2.749,0,0,1,.953-.682,3.163,3.163,0,0,1,2.413,0,2.8,2.8,0,0,1,.953.682A3.109,3.109,0,0,1,47.3,138.4a4.1,4.1,0,0,1,.221,1.371m-1.192,0a2.771,2.771,0,0,0-.486-1.717,1.7,1.7,0,0,0-2.649,0,3.279,3.279,0,0,0,0,3.434,1.7,1.7,0,0,0,2.649,0,2.778,2.778,0,0,0,.486-1.717" transform="translate(-16.48 -81.205)" fill="#e22c1c"/>
    <path id="Path_14" data-name="Path 14" d="M62.854,136.8c.261-.068.61-.136,1.046-.211a8.943,8.943,0,0,1,1.5-.111,3.248,3.248,0,0,1,1.267.214,2.014,2.014,0,0,1,.807.6,2.338,2.338,0,0,1,.425.928,5.416,5.416,0,0,1,.121,1.192v3.595H66.877v-3.349a5.835,5.835,0,0,0-.079-1.01,1.762,1.762,0,0,0-.264-.678,1.039,1.039,0,0,0-.493-.375,2.161,2.161,0,0,0-.764-.118c-.125,0-.25,0-.382.011s-.257.018-.375.032-.225.029-.321.043-.164.029-.2.036v5.4H62.85v-6.215Z" transform="translate(-30.195 -81.244)" fill="#e22c1c"/>
    <path id="Path_15" data-name="Path 15" d="M83.251,142.16a2.219,2.219,0,0,0,1.039-.186.625.625,0,0,0,.339-.589.8.8,0,0,0-.332-.664,5.143,5.143,0,0,0-1.1-.553q-.369-.15-.707-.3a2.433,2.433,0,0,1-.585-.364,1.55,1.55,0,0,1-.393-.5,1.59,1.59,0,0,1-.146-.725A1.627,1.627,0,0,1,82,136.93a2.679,2.679,0,0,1,1.71-.5,4.609,4.609,0,0,1,.543.032q.273.032.5.075c.157.029.293.061.411.093s.211.061.278.086l-.211.985a3.1,3.1,0,0,0-.578-.2,3.666,3.666,0,0,0-.946-.1,1.759,1.759,0,0,0-.835.189.632.632,0,0,0-.357.6.771.771,0,0,0,.325.657,2.007,2.007,0,0,0,.411.239c.164.071.361.15.589.232.3.114.575.228.81.339a2.591,2.591,0,0,1,.61.389,1.461,1.461,0,0,1,.389.535,1.968,1.968,0,0,1,.136.768,1.528,1.528,0,0,1-.657,1.342,3.278,3.278,0,0,1-1.878.457A4.931,4.931,0,0,1,81.923,143a6.278,6.278,0,0,1-.653-.214l.211-.985c.132.05.343.121.628.221a3.575,3.575,0,0,0,1.146.146" transform="translate(-42.04 -81.211)" fill="#e22c1c"/>
    <path id="Path_16" data-name="Path 16" d="M103.025,139.776a4.087,4.087,0,0,1-.221,1.378,3.077,3.077,0,0,1-.621,1.057,2.7,2.7,0,0,1-.953.682,3.163,3.163,0,0,1-2.413,0,2.8,2.8,0,0,1-.953-.682,3.11,3.11,0,0,1-.621-1.057,4.378,4.378,0,0,1,0-2.749,3.109,3.109,0,0,1,.621-1.064,2.749,2.749,0,0,1,.953-.682,3.163,3.163,0,0,1,2.413,0,2.8,2.8,0,0,1,.953.682,3.109,3.109,0,0,1,.621,1.064,4.1,4.1,0,0,1,.221,1.371m-1.192,0a2.771,2.771,0,0,0-.486-1.717,1.7,1.7,0,0,0-2.649,0,3.279,3.279,0,0,0,0,3.434,1.7,1.7,0,0,0,2.649,0,2.778,2.778,0,0,0,.486-1.717" transform="translate(-52.167 -81.205)" fill="#e22c1c"/>
    <path id="Path_17" data-name="Path 17" d="M120.723,136.48c.1,0,.211.007.339.018s.253.029.375.05l.339.061a1.885,1.885,0,0,1,.228.057l-.2,1a3.7,3.7,0,0,0-1.257-.186,2.935,2.935,0,0,0-.635.068c-.211.046-.346.079-.411.093v5.376H118.36v-6.126a8,8,0,0,1,1.01-.278,6.524,6.524,0,0,1,1.353-.129" transform="translate(-65.889 -81.244)" fill="#e22c1c"/>
    <path id="Path_18" data-name="Path 18" d="M133.8,143.124a3.477,3.477,0,0,1-1.36-.246,2.743,2.743,0,0,1-.985-.689,2.811,2.811,0,0,1-.6-1.053,4.347,4.347,0,0,1-.2-1.346,4.089,4.089,0,0,1,.214-1.353,3.122,3.122,0,0,1,.61-1.064,2.7,2.7,0,0,1,.967-.7,3.136,3.136,0,0,1,1.274-.253,5,5,0,0,1,.86.075,4.206,4.206,0,0,1,.825.232l-.257.971a2.78,2.78,0,0,0-.6-.2,3.312,3.312,0,0,0-.721-.075,1.816,1.816,0,0,0-1.471.6,2.647,2.647,0,0,0-.51,1.76,3.556,3.556,0,0,0,.118.946,1.97,1.97,0,0,0,.368.739,1.675,1.675,0,0,0,.646.475,2.461,2.461,0,0,0,.96.168,3.658,3.658,0,0,0,.825-.086,2.831,2.831,0,0,0,.578-.186l.161.96a1.215,1.215,0,0,1-.282.118c-.121.036-.261.068-.418.1s-.321.054-.5.075a5.089,5.089,0,0,1-.51.032" transform="translate(-73.798 -81.205)" fill="#e22c1c"/>
    <path id="Path_19" data-name="Path 19" d="M147.955,130.919a.715.715,0,1,1,.521-.2.725.725,0,0,1-.521.2m.578,7.558h-1.146v-6.4h1.146Z" transform="translate(-84.446 -76.704)" fill="#e22c1c"/>
    <path id="Path_20" data-name="Path 20" d="M161.415,139.776a4.087,4.087,0,0,1-.221,1.378,3.077,3.077,0,0,1-.621,1.057,2.7,2.7,0,0,1-.953.682,3.163,3.163,0,0,1-2.413,0,2.8,2.8,0,0,1-.953-.682,3.111,3.111,0,0,1-.621-1.057,4.378,4.378,0,0,1,0-2.749,3.109,3.109,0,0,1,.621-1.064,2.749,2.749,0,0,1,.953-.682,3.163,3.163,0,0,1,2.413,0,2.8,2.8,0,0,1,.953.682,3.11,3.11,0,0,1,.621,1.064,4.1,4.1,0,0,1,.221,1.371m-1.192,0a2.771,2.771,0,0,0-.486-1.717,1.7,1.7,0,0,0-2.649,0,3.279,3.279,0,0,0,0,3.434,1.7,1.7,0,0,0,2.649,0,2.778,2.778,0,0,0,.486-1.717" transform="translate(-89.712 -81.205)" fill="#e22c1c"/>
    <path id="Path_21" data-name="Path 21" d="M191.924,134.988a4.875,4.875,0,0,1-.346,1.924,3.55,3.55,0,0,1-.971,1.353,4.1,4.1,0,0,1-1.5.8,6.523,6.523,0,0,1-1.921.264c-.346,0-.725-.014-1.139-.043a6.329,6.329,0,0,1-1.125-.168v-8.268a6.672,6.672,0,0,1,1.125-.168c.414-.029.793-.043,1.139-.043a6.661,6.661,0,0,1,1.921.264,4.132,4.132,0,0,1,1.5.8,3.577,3.577,0,0,1,.971,1.353,4.9,4.9,0,0,1,.346,1.924m-4.637,3.3a3.311,3.311,0,1,0,0-6.6c-.336,0-.6,0-.782.011s-.314.018-.389.025v6.522c.075.007.2.014.389.025s.446.011.782.011" transform="translate(-108.687 -77.488)" fill="#e22c1c"/>
    <path id="Path_22" data-name="Path 22" d="M208.29,139.784a4.064,4.064,0,0,1,.246-1.482,3.105,3.105,0,0,1,.653-1.053,2.653,2.653,0,0,1,.935-.628,2.93,2.93,0,0,1,1.082-.211,2.461,2.461,0,0,1,1.981.807,3.727,3.727,0,0,1,.689,2.456v.193a1.951,1.951,0,0,1-.011.214h-4.38a2.356,2.356,0,0,0,.578,1.514,2.107,2.107,0,0,0,1.574.518,4.281,4.281,0,0,0,1.014-.1,3.594,3.594,0,0,0,.621-.2l.161.96a3.208,3.208,0,0,1-.732.232,5.227,5.227,0,0,1-1.189.121,3.713,3.713,0,0,1-1.446-.253,2.662,2.662,0,0,1-1-.7,2.839,2.839,0,0,1-.585-1.053,4.536,4.536,0,0,1-.189-1.335m4.395-.628a1.921,1.921,0,0,0-.389-1.274,1.339,1.339,0,0,0-1.1-.5,1.538,1.538,0,0,0-.7.154,1.661,1.661,0,0,0-.51.4,1.784,1.784,0,0,0-.325.568,2.8,2.8,0,0,0-.154.653h3.174Z" transform="translate(-123.714 -81.199)" fill="#e22c1c"/>
    <path id="Path_23" data-name="Path 23" d="M239,130.644a4.772,4.772,0,0,1,2.763.682,2.338,2.338,0,0,1,.967,2.035,2.773,2.773,0,0,1-.264,1.26,2.212,2.212,0,0,1-.764.85,3.494,3.494,0,0,1-1.214.475,7.893,7.893,0,0,1-1.614.146h-.946v3.163H236.74v-8.4a6.672,6.672,0,0,1,1.125-.168c.414-.029.793-.043,1.139-.043m.1,1.046c-.507,0-.9.011-1.167.036v3.349h.9a6.918,6.918,0,0,0,1.107-.079,2.5,2.5,0,0,0,.832-.271,1.363,1.363,0,0,0,.525-.521,1.752,1.752,0,0,0,.186-.85,1.529,1.529,0,0,0-.189-.81,1.42,1.42,0,0,0-.518-.51,2.235,2.235,0,0,0-.757-.264,5.279,5.279,0,0,0-.91-.075" transform="translate(-142.008 -77.488)" fill="#e22c1c"/>
    <path id="Path_24" data-name="Path 24" d="M259.853,136.48c.1,0,.211.007.339.018s.253.029.375.05l.339.061a1.885,1.885,0,0,1,.228.057l-.2,1a3.7,3.7,0,0,0-1.257-.186,2.935,2.935,0,0,0-.635.068c-.211.046-.346.079-.411.093v5.376H257.49v-6.126a8.005,8.005,0,0,1,1.01-.278,6.525,6.525,0,0,1,1.353-.129" transform="translate(-155.35 -81.244)" fill="#e22c1c"/>
    <path id="Path_25" data-name="Path 25" d="M275.795,139.776a4.087,4.087,0,0,1-.221,1.378,3.077,3.077,0,0,1-.621,1.057,2.7,2.7,0,0,1-.953.682,3.163,3.163,0,0,1-2.413,0,2.8,2.8,0,0,1-.953-.682,3.111,3.111,0,0,1-.621-1.057,4.378,4.378,0,0,1,0-2.749,3.11,3.11,0,0,1,.621-1.064,2.749,2.749,0,0,1,.953-.682,3.163,3.163,0,0,1,2.413,0,2.8,2.8,0,0,1,.953.682,3.109,3.109,0,0,1,.621,1.064,4.1,4.1,0,0,1,.221,1.371m-1.192,0a2.771,2.771,0,0,0-.486-1.717,1.7,1.7,0,0,0-2.649,0,3.279,3.279,0,0,0,0,3.434,1.7,1.7,0,0,0,2.649,0,2.778,2.778,0,0,0,.486-1.717" transform="translate(-163.259 -81.205)" fill="#e22c1c"/>
    <path id="Path_26" data-name="Path 26" d="M288.171,144.453a2.636,2.636,0,0,0,.35.118,1.754,1.754,0,0,0,.425.054,1.662,1.662,0,0,0,1.057-.3,2.616,2.616,0,0,0,.689-.978q-.776-1.478-1.446-3.131a27.524,27.524,0,0,1-1.114-3.352h1.232c.089.368.2.768.325,1.192s.271.867.425,1.317.325.9.5,1.353.368.885.568,1.3q.466-1.291.81-2.56c.232-.846.446-1.717.653-2.61h1.182q-.444,1.81-.985,3.477t-1.167,3.12a6.87,6.87,0,0,1-.51.953,2.775,2.775,0,0,1-.585.657,2.122,2.122,0,0,1-.721.382,3.073,3.073,0,0,1-.9.121,2.6,2.6,0,0,1-.282-.018,2.444,2.444,0,0,1-.289-.05,2.642,2.642,0,0,1-.257-.068c-.075-.025-.132-.046-.168-.061l.211-.925Z" transform="translate(-174.942 -81.488)" fill="#e22c1c"/>
    <path id="Path_27" data-name="Path 27" d="M306.78,139.784a4.064,4.064,0,0,1,.246-1.482,3.105,3.105,0,0,1,.653-1.053,2.653,2.653,0,0,1,.935-.628,2.93,2.93,0,0,1,1.082-.211,2.461,2.461,0,0,1,1.981.807,3.727,3.727,0,0,1,.689,2.456v.193a1.951,1.951,0,0,1-.011.214h-4.38a2.356,2.356,0,0,0,.578,1.514,2.107,2.107,0,0,0,1.574.518,4.281,4.281,0,0,0,1.014-.1,3.594,3.594,0,0,0,.621-.2l.161.96a3.208,3.208,0,0,1-.732.232,5.227,5.227,0,0,1-1.189.121,3.713,3.713,0,0,1-1.446-.253,2.663,2.663,0,0,1-1-.7,2.84,2.84,0,0,1-.585-1.053,4.537,4.537,0,0,1-.189-1.335m4.395-.628a1.921,1.921,0,0,0-.389-1.274,1.339,1.339,0,0,0-1.1-.5,1.538,1.538,0,0,0-.7.154,1.661,1.661,0,0,0-.51.4,1.784,1.784,0,0,0-.325.568,2.8,2.8,0,0,0-.154.653h3.174Z" transform="translate(-187.044 -81.199)" fill="#e22c1c"/>
    <path id="Path_28" data-name="Path 28" d="M329.188,143.124a3.478,3.478,0,0,1-1.36-.246,2.743,2.743,0,0,1-.985-.689,2.811,2.811,0,0,1-.6-1.053,4.347,4.347,0,0,1-.2-1.346,4.09,4.09,0,0,1,.214-1.353,3.181,3.181,0,0,1,.61-1.064,2.7,2.7,0,0,1,.967-.7,3.136,3.136,0,0,1,1.274-.253,5,5,0,0,1,.86.075,4.206,4.206,0,0,1,.825.232l-.257.971a2.78,2.78,0,0,0-.6-.2,3.312,3.312,0,0,0-.721-.075,1.816,1.816,0,0,0-1.471.6,2.648,2.648,0,0,0-.511,1.76,3.556,3.556,0,0,0,.118.946,1.97,1.97,0,0,0,.368.739,1.676,1.676,0,0,0,.646.475,2.461,2.461,0,0,0,.96.168,3.658,3.658,0,0,0,.825-.086,2.831,2.831,0,0,0,.578-.186l.161.96a1.215,1.215,0,0,1-.282.118c-.121.036-.261.068-.418.1s-.321.054-.5.075a5.089,5.089,0,0,1-.51.032" transform="translate(-199.434 -81.205)" fill="#e22c1c"/>
    <path id="Path_29" data-name="Path 29" d="M344.016,133.291h2.424v.96h-2.424V137.2a3.465,3.465,0,0,0,.075.793,1.169,1.169,0,0,0,.221.493.8.8,0,0,0,.368.253,1.615,1.615,0,0,0,.518.075,2.419,2.419,0,0,0,.832-.118c.211-.079.357-.132.436-.168l.221.946a4.318,4.318,0,0,1-.6.214,3.434,3.434,0,0,1-.985.129,3,3,0,0,1-1.078-.164,1.569,1.569,0,0,1-.682-.5,2.043,2.043,0,0,1-.364-.818,5.29,5.29,0,0,1-.1-1.125v-5.708l1.146-.2v1.981Z" transform="translate(-210.25 -77.919)" fill="#e22c1c"/>
    <path id="Path_30" data-name="Path 30" d="M361.465,139.776a4.087,4.087,0,0,1-.221,1.378,3.077,3.077,0,0,1-.621,1.057,2.7,2.7,0,0,1-.953.682,3.163,3.163,0,0,1-2.413,0,2.8,2.8,0,0,1-.953-.682,3.111,3.111,0,0,1-.621-1.057,4.378,4.378,0,0,1,0-2.749,3.109,3.109,0,0,1,.621-1.064,2.749,2.749,0,0,1,.953-.682,3.163,3.163,0,0,1,2.413,0,2.8,2.8,0,0,1,.953.682,3.11,3.11,0,0,1,.621,1.064,4.1,4.1,0,0,1,.221,1.371m-1.192,0a2.771,2.771,0,0,0-.486-1.717,1.7,1.7,0,0,0-2.649,0,3.28,3.28,0,0,0,0,3.434,1.7,1.7,0,0,0,2.649,0,2.778,2.778,0,0,0,.486-1.717" transform="translate(-218.345 -81.205)" fill="#e22c1c"/>
    <path id="Path_31" data-name="Path 31" d="M377.4,142.16a2.22,2.22,0,0,0,1.039-.186.625.625,0,0,0,.339-.589.8.8,0,0,0-.332-.664,5.143,5.143,0,0,0-1.1-.553q-.369-.15-.707-.3a2.549,2.549,0,0,1-.585-.364,1.549,1.549,0,0,1-.393-.5,1.59,1.59,0,0,1-.146-.725,1.627,1.627,0,0,1,.628-1.346,2.679,2.679,0,0,1,1.71-.5,4.609,4.609,0,0,1,.543.032q.273.032.5.075c.157.029.293.061.411.093s.211.061.278.086l-.211.985a3.1,3.1,0,0,0-.578-.2,3.666,3.666,0,0,0-.946-.1,1.759,1.759,0,0,0-.835.189.632.632,0,0,0-.357.6.771.771,0,0,0,.325.657,2.007,2.007,0,0,0,.411.239c.164.071.361.15.589.232.3.114.575.228.81.339a2.591,2.591,0,0,1,.61.389,1.46,1.46,0,0,1,.389.535,1.968,1.968,0,0,1,.136.768,1.528,1.528,0,0,1-.657,1.342,3.279,3.279,0,0,1-1.878.457,4.931,4.931,0,0,1-1.328-.143,6.278,6.278,0,0,1-.653-.214l.211-.985c.132.05.343.121.628.221a3.575,3.575,0,0,0,1.146.146" transform="translate(-231.179 -81.211)" fill="#e22c1c"/>
    <path id="Path_32" data-name="Path 32" d="M400.34,139.425V130.9h5.2v1.021h-4.013v2.535h3.57v1h-3.57V138.4h4.32v1.021Z" transform="translate(-247.203 -77.656)" fill="#e22c1c"/>
    <path id="Path_33" data-name="Path 33" d="M421.686,137.7a2.178,2.178,0,0,1-1.5-.457,1.794,1.794,0,0,1-.443-1.342v-7.679l1.146-.2v7.69a1.717,1.717,0,0,0,.05.468.643.643,0,0,0,.161.3.7.7,0,0,0,.3.168,3.291,3.291,0,0,0,.457.093l-.161.96Z" transform="translate(-259.677 -75.81)" fill="#e22c1c"/>
    <path id="Path_34" data-name="Path 34" d="M428.22,134.382a4.064,4.064,0,0,1,.246-1.482,3.106,3.106,0,0,1,.653-1.053,2.653,2.653,0,0,1,.935-.628,2.93,2.93,0,0,1,1.082-.211,2.461,2.461,0,0,1,1.981.807,3.727,3.727,0,0,1,.689,2.456v.189a1.951,1.951,0,0,1-.011.214h-4.38a2.356,2.356,0,0,0,.578,1.514,2.107,2.107,0,0,0,1.574.518,4.28,4.28,0,0,0,1.014-.1,3.933,3.933,0,0,0,.621-.2l.161.96a3.207,3.207,0,0,1-.732.232,5.205,5.205,0,0,1-1.189.121A3.713,3.713,0,0,1,430,137.46a2.662,2.662,0,0,1-1-.7,2.84,2.84,0,0,1-.585-1.053,4.536,4.536,0,0,1-.189-1.335m4.395-.628a1.921,1.921,0,0,0-.389-1.274,1.339,1.339,0,0,0-1.1-.5,1.538,1.538,0,0,0-.7.154,1.661,1.661,0,0,0-.51.4,1.784,1.784,0,0,0-.325.568,2.8,2.8,0,0,0-.154.653Zm-.011-5.009-1.735,1.685-.578-.518,1.574-1.9.739.725Z" transform="translate(-265.13 -75.797)" fill="#e22c1c"/>
    <path id="Path_35" data-name="Path 35" d="M450.638,143.124a3.477,3.477,0,0,1-1.36-.246,2.743,2.743,0,0,1-.985-.689,2.811,2.811,0,0,1-.6-1.053,4.347,4.347,0,0,1-.2-1.346,4.089,4.089,0,0,1,.214-1.353,3.181,3.181,0,0,1,.61-1.064,2.7,2.7,0,0,1,.967-.7,3.136,3.136,0,0,1,1.274-.253,5,5,0,0,1,.86.075,4.207,4.207,0,0,1,.825.232l-.257.971a2.78,2.78,0,0,0-.6-.2,3.312,3.312,0,0,0-.721-.075,1.816,1.816,0,0,0-1.471.6,2.648,2.648,0,0,0-.51,1.76,3.557,3.557,0,0,0,.118.946,1.97,1.97,0,0,0,.368.739,1.675,1.675,0,0,0,.646.475,2.461,2.461,0,0,0,.96.168,3.658,3.658,0,0,0,.825-.086,2.83,2.83,0,0,0,.578-.186l.161.96a1.215,1.215,0,0,1-.282.118c-.121.036-.261.068-.418.1s-.321.054-.5.075a5.089,5.089,0,0,1-.51.032" transform="translate(-277.527 -81.205)" fill="#e22c1c"/>
    <path id="Path_36" data-name="Path 36" d="M465.466,133.291h2.424v.96h-2.424V137.2a3.467,3.467,0,0,0,.075.793,1.169,1.169,0,0,0,.221.493.8.8,0,0,0,.368.253,1.615,1.615,0,0,0,.518.075,2.419,2.419,0,0,0,.832-.118c.211-.079.357-.132.436-.168l.221.946a4.318,4.318,0,0,1-.6.214,3.435,3.435,0,0,1-.985.129,3,3,0,0,1-1.078-.164,1.569,1.569,0,0,1-.682-.5,2.043,2.043,0,0,1-.364-.818,5.29,5.29,0,0,1-.1-1.125v-5.708l1.146-.2v1.981Z" transform="translate(-288.342 -77.919)" fill="#e22c1c"/>
    <path id="Path_37" data-name="Path 37" d="M480.743,136.48c.1,0,.211.007.339.018s.253.029.375.05l.339.061a1.885,1.885,0,0,1,.228.057l-.2,1a3.7,3.7,0,0,0-1.257-.186,2.935,2.935,0,0,0-.635.068c-.211.046-.346.079-.411.093v5.376H478.38v-6.126a8.005,8.005,0,0,1,1.01-.278,6.525,6.525,0,0,1,1.353-.129" transform="translate(-297.383 -81.244)" fill="#e22c1c"/>
    <path id="Path_38" data-name="Path 38" d="M491.945,130.919a.715.715,0,1,1,.521-.2.725.725,0,0,1-.521.2m.578,7.558h-1.146v-6.4h1.146Z" transform="translate(-305.633 -76.704)" fill="#e22c1c"/>
    <path id="Path_39" data-name="Path 39" d="M502.548,143.124a3.477,3.477,0,0,1-1.36-.246,2.743,2.743,0,0,1-.985-.689,2.811,2.811,0,0,1-.6-1.053,4.347,4.347,0,0,1-.2-1.346,4.09,4.09,0,0,1,.214-1.353,3.181,3.181,0,0,1,.61-1.064,2.7,2.7,0,0,1,.967-.7,3.136,3.136,0,0,1,1.274-.253,5,5,0,0,1,.86.075,4.206,4.206,0,0,1,.825.232l-.257.971a2.78,2.78,0,0,0-.6-.2,3.312,3.312,0,0,0-.721-.075,1.816,1.816,0,0,0-1.471.6,2.648,2.648,0,0,0-.51,1.76,3.557,3.557,0,0,0,.118.946,1.97,1.97,0,0,0,.368.739,1.676,1.676,0,0,0,.646.475,2.461,2.461,0,0,0,.96.168,3.658,3.658,0,0,0,.825-.086,2.831,2.831,0,0,0,.578-.186l.161.96a1.216,1.216,0,0,1-.282.118c-.121.036-.261.068-.418.1s-.321.054-.5.075a5.089,5.089,0,0,1-.51.032" transform="translate(-310.906 -81.205)" fill="#e22c1c"/>
    <path id="Path_40" data-name="Path 40" d="M520.995,139.776a4.087,4.087,0,0,1-.221,1.378,3.077,3.077,0,0,1-.621,1.057,2.7,2.7,0,0,1-.953.682,3.163,3.163,0,0,1-2.413,0,2.8,2.8,0,0,1-.953-.682,3.11,3.11,0,0,1-.621-1.057,4.377,4.377,0,0,1,0-2.749,3.109,3.109,0,0,1,.621-1.064,2.749,2.749,0,0,1,.953-.682,3.163,3.163,0,0,1,2.413,0,2.8,2.8,0,0,1,.953.682,3.11,3.11,0,0,1,.621,1.064,4.1,4.1,0,0,1,.221,1.371m-1.192,0a2.771,2.771,0,0,0-.485-1.717,1.7,1.7,0,0,0-2.649,0,3.279,3.279,0,0,0,0,3.434,1.7,1.7,0,0,0,2.649,0,2.778,2.778,0,0,0,.485-1.717" transform="translate(-320.924 -81.205)" fill="#e22c1c"/>
    <path id="Path_41" data-name="Path 41" d="M536.931,142.16a2.219,2.219,0,0,0,1.039-.186.625.625,0,0,0,.339-.589.8.8,0,0,0-.332-.664,5.142,5.142,0,0,0-1.1-.553q-.37-.15-.707-.3a2.55,2.55,0,0,1-.586-.364,1.549,1.549,0,0,1-.393-.5,1.59,1.59,0,0,1-.146-.725,1.627,1.627,0,0,1,.628-1.346,2.679,2.679,0,0,1,1.71-.5,4.609,4.609,0,0,1,.543.032q.273.032.5.075c.157.029.293.061.411.093s.211.061.278.086l-.211.985a3.1,3.1,0,0,0-.578-.2,3.667,3.667,0,0,0-.946-.1,1.759,1.759,0,0,0-.835.189.632.632,0,0,0-.357.6.771.771,0,0,0,.325.657,2.007,2.007,0,0,0,.411.239c.164.071.361.15.589.232.3.114.575.228.81.339a2.592,2.592,0,0,1,.61.389,1.461,1.461,0,0,1,.389.535,1.968,1.968,0,0,1,.136.768,1.528,1.528,0,0,1-.657,1.342,3.278,3.278,0,0,1-1.878.457A4.93,4.93,0,0,1,535.6,143a6.281,6.281,0,0,1-.653-.214l.211-.985c.132.05.343.121.628.221a3.575,3.575,0,0,0,1.146.146" transform="translate(-333.758 -81.211)" fill="#e22c1c"/>
    <path id="Path_42" data-name="Path 42" d="M90.981,76.34a5.151,5.151,0,1,0,5.151,5.151,5.151,5.151,0,0,0-5.151-5.151m0,8.625a3.474,3.474,0,1,1,3.474-3.474,3.473,3.473,0,0,1-3.474,3.474" transform="translate(-44.972 -42.573)" fill="#e22c1c"/>
    <path id="Path_43" data-name="Path 43" d="M90.981,43.23a5.151,5.151,0,1,0,5.151,5.151,5.151,5.151,0,0,0-5.151-5.151m0,8.625a3.474,3.474,0,1,1,3.474-3.474,3.473,3.473,0,0,1-3.474,3.474" transform="translate(-44.972 -21.283)" fill="#e22c1c"/>
    <path id="Path_44" data-name="Path 44" d="M90.981,10.13a5.151,5.151,0,1,0,5.151,5.151,5.151,5.151,0,0,0-5.151-5.151m0,8.625a3.474,3.474,0,1,1,3.474-3.474,3.473,3.473,0,0,1-3.474,3.474" transform="translate(-44.972)" fill="#e22c1c"/>
    <path id="Path_45" data-name="Path 45" d="M56.011,76.34a5.151,5.151,0,1,0,5.151,5.151,5.151,5.151,0,0,0-5.151-5.151m0,8.625a3.474,3.474,0,1,1,3.474-3.474,3.473,3.473,0,0,1-3.474,3.474" transform="translate(-22.486 -42.573)" fill="#e22c1c"/>
    <path id="Path_46" data-name="Path 46" d="M56.011,43.23a5.151,5.151,0,1,0,5.151,5.151,5.151,5.151,0,0,0-5.151-5.151m0,8.625a3.474,3.474,0,1,1,3.474-3.474,3.473,3.473,0,0,1-3.474,3.474" transform="translate(-22.486 -21.283)" fill="#e22c1c"/>
    <path id="Path_47" data-name="Path 47" d="M56.011,10.13a5.151,5.151,0,1,0,5.151,5.151,5.151,5.151,0,0,0-5.151-5.151m0,8.625a3.474,3.474,0,1,1,3.474-3.474,3.473,3.473,0,0,1-3.474,3.474" transform="translate(-22.486)" fill="#e22c1c"/>
    <path id="Path_48" data-name="Path 48" d="M21.041,76.34a5.151,5.151,0,1,0,5.151,5.151,5.151,5.151,0,0,0-5.151-5.151m0,8.625a3.474,3.474,0,1,1,3.474-3.474,3.473,3.473,0,0,1-3.474,3.474" transform="translate(0 -42.573)" fill="#e22c1c"/>
    <path id="Path_49" data-name="Path 49" d="M21.041,43.23a5.151,5.151,0,1,0,5.151,5.151,5.151,5.151,0,0,0-5.151-5.151m0,8.625a3.474,3.474,0,1,1,3.474-3.474,3.473,3.473,0,0,1-3.474,3.474" transform="translate(0 -21.283)" fill="#e22c1c"/>
    <path id="Path_50" data-name="Path 50" d="M21.041,10.13a5.151,5.151,0,1,0,5.151,5.151,5.151,5.151,0,0,0-5.151-5.151m0,8.625a3.474,3.474,0,1,1,3.474-3.474,3.473,3.473,0,0,1-3.474,3.474" fill="#e22c1c"/>
    <path id="Path_51" data-name="Path 51" d="M141.105,27.835c0,4.637,3.7,9.321,8.743,9.321a8.959,8.959,0,0,0,7.85-5.173l7.715,1.071a16.341,16.341,0,0,1-31.933-5.219A16.455,16.455,0,0,1,149.848,11.11c7,0,13.023,4.595,15.565,11.417L157.7,23.6a8.869,8.869,0,0,0-7.85-5.13c-4.816,0-8.743,4.459-8.743,9.368" transform="translate(-75.611 -0.63)" fill="#e22c1c"/>
    <path id="Path_52" data-name="Path 52" d="M256.531,11.36v7.447H243.24v5.487h10.792v7.493H243.24v5.53h13.291v7.451H235.79V11.36Z" transform="translate(-141.397 -0.791)" fill="#e22c1c"/>
    <path id="Path_53" data-name="Path 53" d="M306.25,44.81V11.36h12.309c16.547,0,16.547,25.468,0,25.468h-4.727V44.81H306.25ZM313.833,18.5V29.735h4.727c6.69,0,6.69-11.238,0-11.238Z" transform="translate(-186.703 -0.791)" fill="#e22c1c"/>
    <path id="Path_54" data-name="Path 54" d="M385.656,35.849l7.047-.578c.179,2.9,3.97,3.923,7.136,3.481,4.773-.582,6.065-5.887.089-6.737-2.631-.446-5.351-.446-7.761-1.2a9.039,9.039,0,0,1-6.958-8.964c0-13.423,24.354-13.691,25.332-.846l-7.09.671c-.136-2.41-2.81-3.659-5.53-3.659-6.065-.046-8.475,6.287-.8,7.047,1.114.089,2.185.089,3.167.178,6.065.714,10.66,3.923,10.66,9.857,0,13.334-24.354,13.648-25.29.757" transform="translate(-237.474 -0.926)" fill="#e22c1c"/>
    <path id="Path_55" data-name="Path 55" d="M484.562,11.36l11.017,33.408h-7.4l-1.649-4.905H472.967l-1.606,4.905h-7.45L474.927,11.36Zm-.489,21.052L479.746,19.3,475.42,32.412Z" transform="translate(-288.079 -0.791)" fill="#e22c1c"/>
  </g>
</svg>
